<mxfile host="Electron" modified="2024-05-23T11:51:15.833Z" agent="Mozilla/5.0 (X11; Linux x86_64) AppleWebKit/537.36 (KHTML, like Gecko) draw.io/24.4.0 Chrome/120.0.6099.109 Electron/28.1.0 Safari/537.36" etag="Zk08w9DAYci-YhliiJk7" version="24.4.0" type="device">
  <diagram name="Pagina-1" id="si0wQ0l1tiX7Fm2jgNS1">
    <mxGraphModel dx="1434" dy="876" grid="1" gridSize="10" guides="1" tooltips="1" connect="1" arrows="1" fold="1" page="1" pageScale="1" pageWidth="1169" pageHeight="827" math="0" shadow="0">
      <root>
        <mxCell id="0" />
        <mxCell id="1" parent="0" />
        <mxCell id="hWBHpQZUgPuk90MrQrh4-1" value="Persona" style="whiteSpace=wrap;html=1;align=center;" parent="1" vertex="1">
          <mxGeometry x="411" y="181" width="100" height="40" as="geometry" />
        </mxCell>
        <mxCell id="GkS7eS-zbb-jv3KnlcKW-8" style="edgeStyle=orthogonalEdgeStyle;rounded=0;orthogonalLoop=1;jettySize=auto;html=1;exitX=1;exitY=0.5;exitDx=0;exitDy=0;entryX=0;entryY=0.5;entryDx=0;entryDy=0;endArrow=none;endFill=0;" parent="1" source="hWBHpQZUgPuk90MrQrh4-2" target="GkS7eS-zbb-jv3KnlcKW-6" edge="1">
          <mxGeometry relative="1" as="geometry" />
        </mxCell>
        <mxCell id="hWBHpQZUgPuk90MrQrh4-2" value="Medico" style="whiteSpace=wrap;html=1;align=center;" parent="1" vertex="1">
          <mxGeometry x="301" y="361" width="100" height="40" as="geometry" />
        </mxCell>
        <mxCell id="hWBHpQZUgPuk90MrQrh4-3" value="Paziente" style="whiteSpace=wrap;html=1;align=center;" parent="1" vertex="1">
          <mxGeometry x="521" y="281" width="100" height="40" as="geometry" />
        </mxCell>
        <mxCell id="hWBHpQZUgPuk90MrQrh4-4" value="Prestazione" style="whiteSpace=wrap;html=1;align=center;" parent="1" vertex="1">
          <mxGeometry x="521" y="442" width="100" height="40" as="geometry" />
        </mxCell>
        <mxCell id="hWBHpQZUgPuk90MrQrh4-6" value="" style="shape=flexArrow;endArrow=classic;html=1;rounded=0;exitX=0.5;exitY=0;exitDx=0;exitDy=0;entryX=0.75;entryY=1;entryDx=0;entryDy=0;" parent="1" source="hWBHpQZUgPuk90MrQrh4-3" target="hWBHpQZUgPuk90MrQrh4-1" edge="1">
          <mxGeometry width="50" height="50" relative="1" as="geometry">
            <mxPoint x="476.18000000000006" y="271" as="sourcePoint" />
            <mxPoint x="475.76" y="231" as="targetPoint" />
          </mxGeometry>
        </mxCell>
        <mxCell id="hWBHpQZUgPuk90MrQrh4-9" value="" style="endArrow=oval;html=1;rounded=0;endFill=0;" parent="1" edge="1">
          <mxGeometry width="50" height="50" relative="1" as="geometry">
            <mxPoint x="431" y="181" as="sourcePoint" />
            <mxPoint x="431" y="141" as="targetPoint" />
          </mxGeometry>
        </mxCell>
        <mxCell id="hWBHpQZUgPuk90MrQrh4-10" value="" style="endArrow=oval;html=1;rounded=0;endFill=0;" parent="1" edge="1">
          <mxGeometry width="50" height="50" relative="1" as="geometry">
            <mxPoint x="441" y="181" as="sourcePoint" />
            <mxPoint x="441" y="151" as="targetPoint" />
          </mxGeometry>
        </mxCell>
        <mxCell id="hWBHpQZUgPuk90MrQrh4-11" value="" style="endArrow=oval;html=1;rounded=0;endFill=0;" parent="1" edge="1">
          <mxGeometry width="50" height="50" relative="1" as="geometry">
            <mxPoint x="451" y="181" as="sourcePoint" />
            <mxPoint x="451" y="161" as="targetPoint" />
          </mxGeometry>
        </mxCell>
        <mxCell id="hWBHpQZUgPuk90MrQrh4-12" value="" style="endArrow=oval;html=1;rounded=0;endFill=1;" parent="1" edge="1">
          <mxGeometry width="50" height="50" relative="1" as="geometry">
            <mxPoint x="421" y="181" as="sourcePoint" />
            <mxPoint x="421" y="131" as="targetPoint" />
          </mxGeometry>
        </mxCell>
        <mxCell id="hWBHpQZUgPuk90MrQrh4-14" value="cf" style="text;html=1;align=center;verticalAlign=middle;whiteSpace=wrap;rounded=0;" parent="1" vertex="1">
          <mxGeometry x="402" y="126" width="60" height="10" as="geometry" />
        </mxCell>
        <mxCell id="hWBHpQZUgPuk90MrQrh4-15" value="nome" style="text;html=1;align=center;verticalAlign=middle;whiteSpace=wrap;rounded=0;" parent="1" vertex="1">
          <mxGeometry x="422" y="136" width="60" height="10" as="geometry" />
        </mxCell>
        <mxCell id="hWBHpQZUgPuk90MrQrh4-16" value="cognome" style="text;html=1;align=center;verticalAlign=middle;whiteSpace=wrap;rounded=0;" parent="1" vertex="1">
          <mxGeometry x="441" y="146" width="60" height="10" as="geometry" />
        </mxCell>
        <mxCell id="hWBHpQZUgPuk90MrQrh4-17" value="nascita" style="text;html=1;align=center;verticalAlign=middle;whiteSpace=wrap;rounded=0;" parent="1" vertex="1">
          <mxGeometry x="446" y="156" width="60" height="10" as="geometry" />
        </mxCell>
        <mxCell id="hWBHpQZUgPuk90MrQrh4-19" value="SpecSec" style="shape=rhombus;perimeter=rhombusPerimeter;whiteSpace=wrap;html=1;align=center;" parent="1" vertex="1">
          <mxGeometry x="356" y="461" width="90" height="40" as="geometry" />
        </mxCell>
        <mxCell id="hWBHpQZUgPuk90MrQrh4-21" value="SpecPrim" style="shape=rhombus;perimeter=rhombusPerimeter;whiteSpace=wrap;html=1;align=center;" parent="1" vertex="1">
          <mxGeometry x="256" y="461" width="90" height="40" as="geometry" />
        </mxCell>
        <mxCell id="hWBHpQZUgPuk90MrQrh4-22" value="Specializzazione" style="whiteSpace=wrap;html=1;align=center;" parent="1" vertex="1">
          <mxGeometry x="301" y="561" width="100" height="40" as="geometry" />
        </mxCell>
        <mxCell id="hWBHpQZUgPuk90MrQrh4-23" value="" style="endArrow=none;html=1;rounded=0;entryX=0.25;entryY=1;entryDx=0;entryDy=0;exitX=0.5;exitY=0;exitDx=0;exitDy=0;" parent="1" source="hWBHpQZUgPuk90MrQrh4-21" target="hWBHpQZUgPuk90MrQrh4-2" edge="1">
          <mxGeometry width="50" height="50" relative="1" as="geometry">
            <mxPoint x="271" y="521" as="sourcePoint" />
            <mxPoint x="321" y="471" as="targetPoint" />
            <Array as="points">
              <mxPoint x="301" y="431" />
              <mxPoint x="326" y="431" />
            </Array>
          </mxGeometry>
        </mxCell>
        <mxCell id="hWBHpQZUgPuk90MrQrh4-24" value="" style="endArrow=none;html=1;rounded=0;entryX=0.75;entryY=1;entryDx=0;entryDy=0;exitX=0.5;exitY=0;exitDx=0;exitDy=0;" parent="1" source="hWBHpQZUgPuk90MrQrh4-19" target="hWBHpQZUgPuk90MrQrh4-2" edge="1">
          <mxGeometry width="50" height="50" relative="1" as="geometry">
            <mxPoint x="311" y="471" as="sourcePoint" />
            <mxPoint x="336" y="411" as="targetPoint" />
            <Array as="points">
              <mxPoint x="401" y="431" />
              <mxPoint x="376" y="431" />
            </Array>
          </mxGeometry>
        </mxCell>
        <mxCell id="hWBHpQZUgPuk90MrQrh4-25" value="" style="endArrow=none;html=1;rounded=0;entryX=0.5;entryY=1;entryDx=0;entryDy=0;exitX=0.75;exitY=0;exitDx=0;exitDy=0;" parent="1" source="hWBHpQZUgPuk90MrQrh4-22" target="hWBHpQZUgPuk90MrQrh4-19" edge="1">
          <mxGeometry width="50" height="50" relative="1" as="geometry">
            <mxPoint x="411" y="471" as="sourcePoint" />
            <mxPoint x="386" y="411" as="targetPoint" />
            <Array as="points">
              <mxPoint x="376" y="531" />
              <mxPoint x="401" y="531" />
            </Array>
          </mxGeometry>
        </mxCell>
        <mxCell id="hWBHpQZUgPuk90MrQrh4-26" value="" style="endArrow=none;html=1;rounded=0;entryX=0.5;entryY=1;entryDx=0;entryDy=0;exitX=0.25;exitY=0;exitDx=0;exitDy=0;" parent="1" source="hWBHpQZUgPuk90MrQrh4-22" target="hWBHpQZUgPuk90MrQrh4-21" edge="1">
          <mxGeometry width="50" height="50" relative="1" as="geometry">
            <mxPoint x="386" y="571" as="sourcePoint" />
            <mxPoint x="411" y="511" as="targetPoint" />
            <Array as="points">
              <mxPoint x="326" y="531" />
              <mxPoint x="301" y="531" />
            </Array>
          </mxGeometry>
        </mxCell>
        <mxCell id="GkS7eS-zbb-jv3KnlcKW-14" style="edgeStyle=orthogonalEdgeStyle;rounded=0;orthogonalLoop=1;jettySize=auto;html=1;exitX=0.5;exitY=0;exitDx=0;exitDy=0;entryX=0.5;entryY=1;entryDx=0;entryDy=0;endArrow=none;endFill=0;" parent="1" source="hWBHpQZUgPuk90MrQrh4-31" target="hWBHpQZUgPuk90MrQrh4-40" edge="1">
          <mxGeometry relative="1" as="geometry" />
        </mxCell>
        <mxCell id="hWBHpQZUgPuk90MrQrh4-31" value="PostoLetto" style="whiteSpace=wrap;html=1;align=center;" parent="1" vertex="1">
          <mxGeometry x="761" y="476" width="100" height="40" as="geometry" />
        </mxCell>
        <mxCell id="hWBHpQZUgPuk90MrQrh4-33" value="" style="endArrow=oval;html=1;rounded=0;endFill=0;" parent="1" edge="1">
          <mxGeometry width="50" height="50" relative="1" as="geometry">
            <mxPoint x="521" y="291" as="sourcePoint" />
            <mxPoint x="491" y="291" as="targetPoint" />
          </mxGeometry>
        </mxCell>
        <mxCell id="hWBHpQZUgPuk90MrQrh4-34" value="" style="endArrow=oval;html=1;rounded=0;endFill=0;" parent="1" edge="1">
          <mxGeometry width="50" height="50" relative="1" as="geometry">
            <mxPoint x="521" y="300.76" as="sourcePoint" />
            <mxPoint x="491" y="300.76" as="targetPoint" />
          </mxGeometry>
        </mxCell>
        <mxCell id="hWBHpQZUgPuk90MrQrh4-35" value="" style="endArrow=oval;html=1;rounded=0;endFill=0;" parent="1" edge="1">
          <mxGeometry width="50" height="50" relative="1" as="geometry">
            <mxPoint x="521" y="310.76" as="sourcePoint" />
            <mxPoint x="491" y="310.76" as="targetPoint" />
          </mxGeometry>
        </mxCell>
        <mxCell id="hWBHpQZUgPuk90MrQrh4-36" value="telefono" style="text;html=1;align=center;verticalAlign=middle;whiteSpace=wrap;rounded=0;" parent="1" vertex="1">
          <mxGeometry x="433" y="286" width="60" height="10" as="geometry" />
        </mxCell>
        <mxCell id="hWBHpQZUgPuk90MrQrh4-37" value="email" style="text;html=1;align=center;verticalAlign=middle;whiteSpace=wrap;rounded=0;" parent="1" vertex="1">
          <mxGeometry x="439" y="296" width="60" height="10" as="geometry" />
        </mxCell>
        <mxCell id="hWBHpQZUgPuk90MrQrh4-38" value="casellaP" style="text;html=1;align=center;verticalAlign=middle;whiteSpace=wrap;rounded=0;" parent="1" vertex="1">
          <mxGeometry x="433" y="306" width="60" height="10" as="geometry" />
        </mxCell>
        <mxCell id="GkS7eS-zbb-jv3KnlcKW-13" style="edgeStyle=orthogonalEdgeStyle;rounded=0;orthogonalLoop=1;jettySize=auto;html=1;exitX=0.5;exitY=1;exitDx=0;exitDy=0;entryX=0.5;entryY=0;entryDx=0;entryDy=0;endArrow=none;endFill=0;" parent="1" source="hWBHpQZUgPuk90MrQrh4-39" target="hWBHpQZUgPuk90MrQrh4-40" edge="1">
          <mxGeometry relative="1" as="geometry" />
        </mxCell>
        <mxCell id="hWBHpQZUgPuk90MrQrh4-39" value="Stanza" style="whiteSpace=wrap;html=1;align=center;" parent="1" vertex="1">
          <mxGeometry x="761" y="280" width="100" height="40" as="geometry" />
        </mxCell>
        <mxCell id="hWBHpQZUgPuk90MrQrh4-40" value="Localizzato" style="shape=rhombus;perimeter=rhombusPerimeter;whiteSpace=wrap;html=1;align=center;" parent="1" vertex="1">
          <mxGeometry x="766" y="381" width="90" height="40" as="geometry" />
        </mxCell>
        <mxCell id="hWBHpQZUgPuk90MrQrh4-43" value="" style="endArrow=oval;html=1;rounded=0;endFill=0;" parent="1" edge="1">
          <mxGeometry width="50" height="50" relative="1" as="geometry">
            <mxPoint x="861" y="288" as="sourcePoint" />
            <mxPoint x="891" y="288" as="targetPoint" />
          </mxGeometry>
        </mxCell>
        <mxCell id="hWBHpQZUgPuk90MrQrh4-44" value="" style="endArrow=oval;html=1;rounded=0;endFill=0;" parent="1" edge="1">
          <mxGeometry width="50" height="50" relative="1" as="geometry">
            <mxPoint x="861" y="300.76" as="sourcePoint" />
            <mxPoint x="891" y="300.76" as="targetPoint" />
          </mxGeometry>
        </mxCell>
        <mxCell id="hWBHpQZUgPuk90MrQrh4-45" value="piano" style="text;html=1;align=center;verticalAlign=middle;whiteSpace=wrap;rounded=0;" parent="1" vertex="1">
          <mxGeometry x="883" y="282" width="60" height="10" as="geometry" />
        </mxCell>
        <mxCell id="hWBHpQZUgPuk90MrQrh4-46" value="settore" style="text;html=1;align=center;verticalAlign=middle;whiteSpace=wrap;rounded=0;" parent="1" vertex="1">
          <mxGeometry x="887" y="295" width="60" height="10" as="geometry" />
        </mxCell>
        <mxCell id="GkS7eS-zbb-jv3KnlcKW-2" style="edgeStyle=orthogonalEdgeStyle;rounded=0;orthogonalLoop=1;jettySize=auto;html=1;exitX=0.5;exitY=0;exitDx=0;exitDy=0;entryX=0.5;entryY=1;entryDx=0;entryDy=0;endArrow=none;endFill=0;" parent="1" source="hWBHpQZUgPuk90MrQrh4-47" target="hWBHpQZUgPuk90MrQrh4-3" edge="1">
          <mxGeometry relative="1" as="geometry" />
        </mxCell>
        <mxCell id="hWBHpQZUgPuk90MrQrh4-47" value="Richiede" style="shape=rhombus;perimeter=rhombusPerimeter;whiteSpace=wrap;html=1;align=center;" parent="1" vertex="1">
          <mxGeometry x="526" y="361" width="90" height="40" as="geometry" />
        </mxCell>
        <mxCell id="hWBHpQZUgPuk90MrQrh4-52" style="edgeStyle=orthogonalEdgeStyle;rounded=0;orthogonalLoop=1;jettySize=auto;html=1;exitX=0;exitY=0.5;exitDx=0;exitDy=0;entryX=1;entryY=0.5;entryDx=0;entryDy=0;endArrow=none;endFill=0;" parent="1" source="hWBHpQZUgPuk90MrQrh4-48" target="hWBHpQZUgPuk90MrQrh4-49" edge="1">
          <mxGeometry relative="1" as="geometry" />
        </mxCell>
        <mxCell id="GkS7eS-zbb-jv3KnlcKW-12" style="edgeStyle=orthogonalEdgeStyle;rounded=0;orthogonalLoop=1;jettySize=auto;html=1;exitX=0.5;exitY=0;exitDx=0;exitDy=0;entryX=0.5;entryY=0;entryDx=0;entryDy=0;endArrow=none;endFill=0;" parent="1" source="hWBHpQZUgPuk90MrQrh4-48" target="GkS7eS-zbb-jv3KnlcKW-11" edge="1">
          <mxGeometry relative="1" as="geometry">
            <Array as="points">
              <mxPoint x="511" y="521" />
              <mxPoint x="631" y="521" />
            </Array>
          </mxGeometry>
        </mxCell>
        <mxCell id="hWBHpQZUgPuk90MrQrh4-48" value="PrestazioneEst" style="whiteSpace=wrap;html=1;align=center;" parent="1" vertex="1">
          <mxGeometry x="461" y="561" width="100" height="40" as="geometry" />
        </mxCell>
        <mxCell id="hWBHpQZUgPuk90MrQrh4-49" value="SpecPrEst" style="shape=rhombus;perimeter=rhombusPerimeter;whiteSpace=wrap;html=1;align=center;" parent="1" vertex="1">
          <mxGeometry x="306" y="621" width="90" height="40" as="geometry" />
        </mxCell>
        <mxCell id="hWBHpQZUgPuk90MrQrh4-53" style="edgeStyle=orthogonalEdgeStyle;rounded=0;orthogonalLoop=1;jettySize=auto;html=1;exitX=0.5;exitY=0;exitDx=0;exitDy=0;entryX=0.5;entryY=1;entryDx=0;entryDy=0;endArrow=none;endFill=0;" parent="1" source="hWBHpQZUgPuk90MrQrh4-49" target="hWBHpQZUgPuk90MrQrh4-22" edge="1">
          <mxGeometry relative="1" as="geometry" />
        </mxCell>
        <mxCell id="hWBHpQZUgPuk90MrQrh4-54" value="" style="endArrow=oval;html=1;rounded=0;endFill=0;exitX=0.1;exitY=0;exitDx=0;exitDy=0;exitPerimeter=0;" parent="1" source="hWBHpQZUgPuk90MrQrh4-48" edge="1">
          <mxGeometry width="50" height="50" relative="1" as="geometry">
            <mxPoint x="471" y="521" as="sourcePoint" />
            <mxPoint x="471" y="541" as="targetPoint" />
          </mxGeometry>
        </mxCell>
        <mxCell id="hWBHpQZUgPuk90MrQrh4-55" value="descrizione" style="text;html=1;align=center;verticalAlign=middle;whiteSpace=wrap;rounded=0;" parent="1" vertex="1">
          <mxGeometry x="404" y="536" width="60" height="10" as="geometry" />
        </mxCell>
        <mxCell id="hWBHpQZUgPuk90MrQrh4-57" value="numero" style="text;html=1;align=center;verticalAlign=middle;whiteSpace=wrap;rounded=0;" parent="1" vertex="1">
          <mxGeometry x="887" y="491" width="60" height="10" as="geometry" />
        </mxCell>
        <mxCell id="hWBHpQZUgPuk90MrQrh4-58" value="" style="endArrow=oval;html=1;rounded=0;endFill=0;" parent="1" edge="1">
          <mxGeometry width="50" height="50" relative="1" as="geometry">
            <mxPoint x="861" y="496" as="sourcePoint" />
            <mxPoint x="891" y="496" as="targetPoint" />
          </mxGeometry>
        </mxCell>
        <mxCell id="hWBHpQZUgPuk90MrQrh4-59" value="(1,N)" style="text;html=1;align=center;verticalAlign=middle;whiteSpace=wrap;rounded=0;" parent="1" vertex="1">
          <mxGeometry x="801" y="371" width="60" height="10" as="geometry" />
        </mxCell>
        <mxCell id="hWBHpQZUgPuk90MrQrh4-60" value="(1,1)" style="text;html=1;align=center;verticalAlign=middle;whiteSpace=wrap;rounded=0;" parent="1" vertex="1">
          <mxGeometry x="801" y="421" width="60" height="10" as="geometry" />
        </mxCell>
        <mxCell id="hWBHpQZUgPuk90MrQrh4-61" value="(1,N)" style="text;html=1;align=center;verticalAlign=middle;whiteSpace=wrap;rounded=0;" parent="1" vertex="1">
          <mxGeometry x="556" y="349" width="60" height="10" as="geometry" />
        </mxCell>
        <mxCell id="GkS7eS-zbb-jv3KnlcKW-4" style="edgeStyle=orthogonalEdgeStyle;rounded=0;orthogonalLoop=1;jettySize=auto;html=1;exitX=0.25;exitY=0;exitDx=0;exitDy=0;entryX=0.5;entryY=0;entryDx=0;entryDy=0;endArrow=none;endFill=0;" parent="1" source="hWBHpQZUgPuk90MrQrh4-62" target="hWBHpQZUgPuk90MrQrh4-4" edge="1">
          <mxGeometry relative="1" as="geometry">
            <Array as="points">
              <mxPoint x="571" y="421" />
              <mxPoint x="571" y="421" />
            </Array>
          </mxGeometry>
        </mxCell>
        <mxCell id="hWBHpQZUgPuk90MrQrh4-62" value="(1,1)" style="text;html=1;align=center;verticalAlign=middle;whiteSpace=wrap;rounded=0;" parent="1" vertex="1">
          <mxGeometry x="556" y="401" width="60" height="10" as="geometry" />
        </mxCell>
        <mxCell id="hWBHpQZUgPuk90MrQrh4-63" value="(1,1)" style="text;html=1;align=center;verticalAlign=middle;whiteSpace=wrap;rounded=0;" parent="1" vertex="1">
          <mxGeometry x="362" y="651" width="60" height="10" as="geometry" />
        </mxCell>
        <mxCell id="hWBHpQZUgPuk90MrQrh4-64" value="(0,N)" style="text;html=1;align=center;verticalAlign=middle;whiteSpace=wrap;rounded=0;" parent="1" vertex="1">
          <mxGeometry x="296" y="611" width="60" height="10" as="geometry" />
        </mxCell>
        <mxCell id="hWBHpQZUgPuk90MrQrh4-65" value="(0,N)" style="text;html=1;align=center;verticalAlign=middle;whiteSpace=wrap;rounded=0;" parent="1" vertex="1">
          <mxGeometry x="386" y="451" width="60" height="10" as="geometry" />
        </mxCell>
        <mxCell id="hWBHpQZUgPuk90MrQrh4-66" value="(0,N)" style="text;html=1;align=center;verticalAlign=middle;whiteSpace=wrap;rounded=0;" parent="1" vertex="1">
          <mxGeometry x="386" y="501" width="60" height="10" as="geometry" />
        </mxCell>
        <mxCell id="hWBHpQZUgPuk90MrQrh4-67" value="(0,N)" style="text;html=1;align=center;verticalAlign=middle;whiteSpace=wrap;rounded=0;" parent="1" vertex="1">
          <mxGeometry x="256" y="501" width="60" height="10" as="geometry" />
        </mxCell>
        <mxCell id="hWBHpQZUgPuk90MrQrh4-68" value="(1,1)" style="text;html=1;align=center;verticalAlign=middle;whiteSpace=wrap;rounded=0;" parent="1" vertex="1">
          <mxGeometry x="256" y="451" width="60" height="10" as="geometry" />
        </mxCell>
        <mxCell id="hWBHpQZUgPuk90MrQrh4-72" value="" style="endArrow=oval;html=1;rounded=0;endFill=1;" parent="1" edge="1">
          <mxGeometry width="50" height="50" relative="1" as="geometry">
            <mxPoint x="301" y="580.6700000000001" as="sourcePoint" />
            <mxPoint x="271" y="580.6700000000001" as="targetPoint" />
          </mxGeometry>
        </mxCell>
        <mxCell id="hWBHpQZUgPuk90MrQrh4-73" value="nome" style="text;html=1;align=center;verticalAlign=middle;whiteSpace=wrap;rounded=0;" parent="1" vertex="1">
          <mxGeometry x="221" y="575" width="60" height="10" as="geometry" />
        </mxCell>
        <mxCell id="hWBHpQZUgPuk90MrQrh4-74" value="" style="endArrow=oval;html=1;rounded=0;endFill=1;" parent="1" edge="1">
          <mxGeometry width="50" height="50" relative="1" as="geometry">
            <mxPoint x="782" y="461" as="sourcePoint" />
            <mxPoint x="871" y="511" as="targetPoint" />
            <Array as="points">
              <mxPoint x="871" y="461" />
            </Array>
          </mxGeometry>
        </mxCell>
        <mxCell id="hWBHpQZUgPuk90MrQrh4-75" value="" style="endArrow=oval;html=1;rounded=0;endFill=0;" parent="1" edge="1">
          <mxGeometry width="50" height="50" relative="1" as="geometry">
            <mxPoint x="861" y="311.76" as="sourcePoint" />
            <mxPoint x="891" y="311.76" as="targetPoint" />
          </mxGeometry>
        </mxCell>
        <mxCell id="hWBHpQZUgPuk90MrQrh4-76" value="numero" style="text;html=1;align=center;verticalAlign=middle;whiteSpace=wrap;rounded=0;" parent="1" vertex="1">
          <mxGeometry x="889" y="306" width="60" height="10" as="geometry" />
        </mxCell>
        <mxCell id="hWBHpQZUgPuk90MrQrh4-77" value="" style="endArrow=oval;html=1;rounded=0;endFill=1;" parent="1" edge="1">
          <mxGeometry width="50" height="50" relative="1" as="geometry">
            <mxPoint x="872" y="326" as="sourcePoint" />
            <mxPoint x="872" y="276" as="targetPoint" />
          </mxGeometry>
        </mxCell>
        <mxCell id="EFDo2chxuuUjdiycQVeV-1" value="" style="endArrow=oval;html=1;rounded=0;endFill=0;" parent="1" edge="1">
          <mxGeometry width="50" height="50" relative="1" as="geometry">
            <mxPoint x="621" y="451" as="sourcePoint" />
            <mxPoint x="651" y="451" as="targetPoint" />
          </mxGeometry>
        </mxCell>
        <mxCell id="EFDo2chxuuUjdiycQVeV-2" value="" style="endArrow=oval;html=1;rounded=0;endFill=0;" parent="1" edge="1">
          <mxGeometry width="50" height="50" relative="1" as="geometry">
            <mxPoint x="681" y="671" as="sourcePoint" />
            <mxPoint x="711" y="671" as="targetPoint" />
          </mxGeometry>
        </mxCell>
        <mxCell id="EFDo2chxuuUjdiycQVeV-3" value="inizio" style="text;html=1;align=center;verticalAlign=middle;whiteSpace=wrap;rounded=0;" parent="1" vertex="1">
          <mxGeometry x="643" y="445.9999999999999" width="60" height="10" as="geometry" />
        </mxCell>
        <mxCell id="EFDo2chxuuUjdiycQVeV-4" value="dimesso" style="text;html=1;align=center;verticalAlign=middle;whiteSpace=wrap;rounded=0;" parent="1" vertex="1">
          <mxGeometry x="697" y="665.9999999999999" width="87" height="10" as="geometry" />
        </mxCell>
        <mxCell id="GkS7eS-zbb-jv3KnlcKW-1" value="" style="shape=flexArrow;endArrow=classic;html=1;rounded=0;exitX=0.5;exitY=0;exitDx=0;exitDy=0;entryX=0.25;entryY=1;entryDx=0;entryDy=0;" parent="1" source="hWBHpQZUgPuk90MrQrh4-2" target="hWBHpQZUgPuk90MrQrh4-1" edge="1">
          <mxGeometry width="50" height="50" relative="1" as="geometry">
            <mxPoint x="402.41999999999996" y="271" as="sourcePoint" />
            <mxPoint x="402" y="231" as="targetPoint" />
          </mxGeometry>
        </mxCell>
        <mxCell id="GkS7eS-zbb-jv3KnlcKW-7" style="edgeStyle=orthogonalEdgeStyle;rounded=0;orthogonalLoop=1;jettySize=auto;html=1;exitX=0.5;exitY=1;exitDx=0;exitDy=0;entryX=0.25;entryY=0;entryDx=0;entryDy=0;endArrow=none;endFill=0;" parent="1" source="GkS7eS-zbb-jv3KnlcKW-6" target="hWBHpQZUgPuk90MrQrh4-4" edge="1">
          <mxGeometry relative="1" as="geometry" />
        </mxCell>
        <mxCell id="GkS7eS-zbb-jv3KnlcKW-6" value="Eroga" style="shape=rhombus;perimeter=rhombusPerimeter;whiteSpace=wrap;html=1;align=center;" parent="1" vertex="1">
          <mxGeometry x="422" y="361" width="90" height="40" as="geometry" />
        </mxCell>
        <mxCell id="GkS7eS-zbb-jv3KnlcKW-9" value="" style="shape=flexArrow;endArrow=classic;html=1;rounded=0;entryX=0.5;entryY=1;entryDx=0;entryDy=0;fillColor=#000000;" parent="1" target="hWBHpQZUgPuk90MrQrh4-4" edge="1">
          <mxGeometry width="50" height="50" relative="1" as="geometry">
            <mxPoint x="571" y="521" as="sourcePoint" />
            <mxPoint x="596" y="525" as="targetPoint" />
          </mxGeometry>
        </mxCell>
        <mxCell id="GkS7eS-zbb-jv3KnlcKW-16" style="edgeStyle=orthogonalEdgeStyle;rounded=0;orthogonalLoop=1;jettySize=auto;html=1;exitX=1;exitY=0.5;exitDx=0;exitDy=0;entryX=0;entryY=0.5;entryDx=0;entryDy=0;endArrow=none;endFill=0;" parent="1" source="GkS7eS-zbb-jv3KnlcKW-11" target="GkS7eS-zbb-jv3KnlcKW-15" edge="1">
          <mxGeometry relative="1" as="geometry" />
        </mxCell>
        <mxCell id="GkS7eS-zbb-jv3KnlcKW-11" value="Ricovero" style="whiteSpace=wrap;html=1;align=center;" parent="1" vertex="1">
          <mxGeometry x="581" y="561" width="100" height="40" as="geometry" />
        </mxCell>
        <mxCell id="GkS7eS-zbb-jv3KnlcKW-17" style="edgeStyle=orthogonalEdgeStyle;rounded=0;orthogonalLoop=1;jettySize=auto;html=1;exitX=0.5;exitY=0;exitDx=0;exitDy=0;entryX=0.5;entryY=1;entryDx=0;entryDy=0;endArrow=none;endFill=0;" parent="1" source="GkS7eS-zbb-jv3KnlcKW-15" target="hWBHpQZUgPuk90MrQrh4-31" edge="1">
          <mxGeometry relative="1" as="geometry" />
        </mxCell>
        <mxCell id="GkS7eS-zbb-jv3KnlcKW-15" value="PLRic" style="shape=rhombus;perimeter=rhombusPerimeter;whiteSpace=wrap;html=1;align=center;" parent="1" vertex="1">
          <mxGeometry x="766" y="561" width="90" height="40" as="geometry" />
        </mxCell>
        <mxCell id="GkS7eS-zbb-jv3KnlcKW-18" value="(1,1)" style="text;html=1;align=center;verticalAlign=middle;whiteSpace=wrap;rounded=0;" parent="1" vertex="1">
          <mxGeometry x="741" y="591" width="60" height="10" as="geometry" />
        </mxCell>
        <mxCell id="GkS7eS-zbb-jv3KnlcKW-19" value="(0,N)" style="text;html=1;align=center;verticalAlign=middle;whiteSpace=wrap;rounded=0;" parent="1" vertex="1">
          <mxGeometry x="801" y="551" width="60" height="10" as="geometry" />
        </mxCell>
        <mxCell id="GkS7eS-zbb-jv3KnlcKW-20" value="(0,N)" style="text;html=1;align=center;verticalAlign=middle;whiteSpace=wrap;rounded=0;" parent="1" vertex="1">
          <mxGeometry x="396" y="361" width="60" height="10" as="geometry" />
        </mxCell>
        <mxCell id="GkS7eS-zbb-jv3KnlcKW-21" value="(1,1)" style="text;html=1;align=center;verticalAlign=middle;whiteSpace=wrap;rounded=0;" parent="1" vertex="1">
          <mxGeometry x="456" y="401" width="60" height="10" as="geometry" />
        </mxCell>
        <mxCell id="GkS7eS-zbb-jv3KnlcKW-23" value="" style="endArrow=oval;html=1;rounded=0;endFill=1;" parent="1" edge="1">
          <mxGeometry width="50" height="50" relative="1" as="geometry">
            <mxPoint x="640" y="460" as="sourcePoint" />
            <mxPoint x="531" y="430" as="targetPoint" />
            <Array as="points">
              <mxPoint x="640" y="430" />
            </Array>
          </mxGeometry>
        </mxCell>
        <mxCell id="GkS7eS-zbb-jv3KnlcKW-24" value="RicoveroTerm" style="whiteSpace=wrap;html=1;align=center;" parent="1" vertex="1">
          <mxGeometry x="581" y="661" width="100" height="40" as="geometry" />
        </mxCell>
        <mxCell id="GkS7eS-zbb-jv3KnlcKW-25" value="" style="shape=flexArrow;endArrow=classic;html=1;rounded=0;exitX=0.5;exitY=0;exitDx=0;exitDy=0;entryX=0.5;entryY=1;entryDx=0;entryDy=0;" parent="1" source="GkS7eS-zbb-jv3KnlcKW-24" target="GkS7eS-zbb-jv3KnlcKW-11" edge="1">
          <mxGeometry width="50" height="50" relative="1" as="geometry">
            <mxPoint x="673.5" y="645" as="sourcePoint" />
            <mxPoint x="588.5" y="585" as="targetPoint" />
          </mxGeometry>
        </mxCell>
      </root>
    </mxGraphModel>
  </diagram>
</mxfile>
